<svg width="244" height="187" viewBox="0 0 244 187" fill="none" xmlns="http://www.w3.org/2000/svg">
<path d="M16 139.5C11.6 134.7 13.1667 98.8333 14.5 81.5C12.3334 79.6667 3.5 73 1.00003 58.5C-2.20236 39.926 23.5 6 94 1C164.5 -4 189.5 37 193 51C195.8 62.2 185.167 81.3333 179.5 89.5V143C176.5 152 111 186 98 186.5C85 187 21.5 145.5 16 139.5Z" fill="#E07F14"/>
<path d="M71.5 51.5C39.9 34.7 23 35.8333 18.5 38.5C17.3334 39 12.2 42 11 44C9.50003 46.5 7.00003 46 7.00003 57C7.00003 65.8 17.3334 75 22.5 78.5C21.6667 94 20.2 126.7 21 133.5C22 142 87.5 174.5 94 174C99.2 173.6 97.8334 131.5 96.5 110.5C101 109.833 110.6 106.5 113 98.5C116 88.5 111 72.5 71.5 51.5Z" fill="#FFECCC"/>
<path d="M121.5 107C128.3 101.8 126.667 88.1667 125 82L193 51C193.167 52.8333 193.1 58.7 191.5 67.5C189.9 76.3 182.833 85.8333 179.5 89.5L179.5 97L105.5 127V118C108 116.5 114.7 112.2 121.5 107Z" fill="#1E1E1E" fill-opacity="0.1" style="mix-blend-mode:multiply"/>
<path d="M117.5 69.5L188 40C188 40 181 28.5 171 20.5C163.376 14.401 140.5 3 122 1.5C97.5598 -0.481634 95.2 -1.3 64 5.5C32.8 12.3 15 27.6667 10 34.5C12.1667 32.8333 17.8 29.4 23 29C29.5 28.5 44 29 71 38.5C92.6 46.1 111 62.3333 117.5 69.5Z" fill="#EDA435" fill-opacity="0.37"/>
<path d="M187.128 131.253C186.328 129.653 189.462 129.92 191.128 130.253C192.462 131.586 194.528 134.253 192.128 134.253C189.128 134.253 188.128 133.253 187.128 131.253Z" fill="#FFE6BB"/>
<path d="M242.437 117.212C244.134 117.778 241.73 119.805 240.316 120.748C238.43 120.748 235.083 120.323 236.78 118.626C238.902 116.505 240.316 116.505 242.437 117.212Z" fill="#FFE6BB"/>
<path d="M205.92 129.375C205.12 127.375 207.92 127.875 208.42 128.875C208.812 129.66 209.485 130.309 208.92 130.875C208.42 131.375 208.42 133.875 205.92 133.875C203.42 133.875 206.92 131.875 205.92 129.375Z" fill="#FFE6BB"/>
<path d="M211.128 116.253C210.328 114.653 213.462 114.92 215.128 115.253C216.462 116.586 218.528 119.253 216.128 119.253C213.128 119.253 212.128 118.253 211.128 116.253Z" fill="#FFE6BB"/>
</svg>
